<svg xmlns="http://www.w3.org/2000/svg" width="24" height="24" viewBox="0 0 24 24">
  <circle cx="12" cy="12" r="12" fill="#000000"/>
  <path
    fill="#ffffff"
    d="M12 3C7.03 3 3 7.045 3 12.02c0 3.99 2.58 7.38 6.16 8.57.45.083.61-.196.61-.435
    0-.213-.008-.787-.012-1.54-2.505.548-3.035-1.205-3.035-1.205
    -.41-1.04-1-1.315-1-1.315
    -.82-.57.06-.55.06-.55
    .905.065 1.38.93 1.38.93
    .8 1.38 2.105.985 2.62.75
    .08-.585.315-.985.57-1.215
    -2-.23-4.1-1.01-4.1-4.46
    0-.98.35-1.78.925-2.405
    -.095-.23-.4-1.14.095-2.365
    0 0 .76-.245 2.47.93
    .72-.2 1.49-.305 2.255-.31
    .765.005 1.535.11 2.255.31
    1.71-1.175 2.47-.93 2.47-.93
    .495 1.225.19 2.135.095 2.365
    .575.625.925 1.425.925 2.405
    0 3.46-2.105 4.225-4.12 4.445
    .325.28.61.83.61 1.67
    0 1.2-.01 2.17-.01 2.46
    0 .24.16.52.62.43
    A9.02 9.02 0 0021 12.02
    C21 7.045 16.97 3 12 3z"
  />
</svg>
